<mxfile host="app.diagrams.net" modified="2023-09-07T07:34:56.921Z" agent="Mozilla/5.0 (X11; Ubuntu; Linux x86_64; rv:109.0) Gecko/20100101 Firefox/117.0" version="21.6.5" etag="gJBkx7yNDcJHLaOo-bVb" type="github">
  <diagram name="Page-1" id="3aAMuH5KgSDUZjaE7FMC">
    <mxGraphModel>
      <root>
        <mxCell id="0" />
        <mxCell id="1" parent="0" />
      </root>
    </mxGraphModel>
  </diagram>
</mxfile>
